<?xml version="1.0" encoding="UTF-8"?>
<svg version="1.1" xmlns="http://www.w3.org/2000/svg" width="512" height="512">
<path d="M0 0 C1.06089844 -0.03738281 2.12179687 -0.07476563 3.21484375 -0.11328125 C6.0625 0.3125 6.0625 0.3125 7.70141602 1.77905273 C9.72075937 5.53774798 9.59441747 9.06323747 9.6875 13.2734375 C9.71930862 14.16314743 9.75111725 15.05285736 9.78388977 15.9695282 C9.85186177 17.88079152 9.91407085 19.7922668 9.97109985 21.70388794 C10.12498535 26.72723461 10.333751 31.74822927 10.54296875 36.76953125 C10.58407272 37.76752243 10.6251767 38.76551361 10.66752625 39.79374695 C13.53396411 106.70957914 32.84693866 159.04006396 79.13037109 207.26611328 C81.09018958 209.34182703 82.99335085 211.46042458 84.89453125 213.58984375 C92.5513075 222.27426257 92.5513075 222.27426257 103.1875 226.0625 C104.20070313 226.07796875 105.21390625 226.0934375 106.2578125 226.109375 C110.69523242 226.43074803 113.23529543 228.48529543 116.3125 231.5625 C118.47227884 234.95643817 118.9217793 237.30195998 119.0625 241.3125 C118.381875 242.7665625 118.381875 242.7665625 117.6875 244.25 C117.378125 245.7659375 117.378125 245.7659375 117.0625 247.3125 C118.33513382 249.16258913 118.33513382 249.16258913 120.15625 250.9765625 C147.56189352 280.89877209 158.78807994 321.55385988 157.0625 361.3125 C156.59038781 367.10214641 155.47046823 372.68439171 154.0625 378.3125 C153.75650879 379.5492749 153.75650879 379.5492749 153.44433594 380.81103516 C147.70566225 403.44413029 138.30662908 422.7951322 124.0625 441.3125 C123.12664062 442.53839844 123.12664062 442.53839844 122.171875 443.7890625 C111.29071831 457.72225094 98.94849439 470.3809725 85.0625 481.3125 C83.5465625 482.5190625 83.5465625 482.5190625 82 483.75 C45.73981241 512.34192081 45.73981241 512.34192081 33.78486633 512.48658752 C32.88665161 512.49952347 31.98843689 512.51245941 31.06300354 512.52578735 C30.07452927 512.53476044 29.08605499 512.54373352 28.06762695 512.55297852 C27.0282901 512.56597488 25.98895325 512.57897125 24.91812134 512.59236145 C14.00112517 512.719548 3.08334263 512.77592402 -7.83422852 512.82739258 C-13.00524051 512.8540548 -18.17532051 512.9026668 -23.34594727 512.97094727 C-29.59888108 513.05330686 -35.85093284 513.09564284 -42.10437965 513.11045647 C-44.47847388 513.12264102 -46.85254202 513.14852539 -49.22632408 513.18890572 C-63.6762126 513.4222365 -73.88724495 512.73761696 -85.9375 504.3125 C-87.6921787 503.23751727 -89.45039769 502.16824955 -91.21484375 501.109375 C-92.77353432 500.1019108 -94.3269695 499.08626851 -95.875 498.0625 C-96.71490479 497.51094238 -97.55480957 496.95938477 -98.42016602 496.39111328 C-111.27780458 487.8615357 -123.30871651 478.4387758 -134.9375 468.3125 C-136.20400391 467.23162109 -136.20400391 467.23162109 -137.49609375 466.12890625 C-142.44387625 461.84861549 -146.73706921 457.31744879 -150.9375 452.3125 C-152.2059375 450.87583984 -152.2059375 450.87583984 -153.5 449.41015625 C-179.43130835 419.87993808 -190.57897544 384.31274066 -188.9375 345.3125 C-185.54187687 300.37380644 -160.50230687 259.59429326 -134.25 224.4375 C-133.59088623 223.54514648 -132.93177246 222.65279297 -132.25268555 221.73339844 C-131.62918213 220.91645508 -131.00567871 220.09951172 -130.36328125 219.2578125 C-129.54984253 218.18297607 -129.54984253 218.18297607 -128.7199707 217.08642578 C-126.59169951 214.96835723 -124.79761988 214.17783636 -121.9375 213.3125 C-118.16803782 213.3894278 -116.55340831 213.68007307 -113.8984375 216.40625 C-111.66291166 219.71945961 -110.64322761 222.94177349 -109.625 226.75 C-105.81528988 239.72962855 -100.82040377 248.96157071 -90.9375 258.3125 C-91.05343506 257.42691406 -91.16937012 256.54132813 -91.28881836 255.62890625 C-91.72728806 252.25963585 -92.16091454 248.88980827 -92.59155273 245.51953125 C-92.77686942 244.07658311 -92.96396961 242.6338626 -93.15307617 241.19140625 C-100.62088753 184.15724164 -92.22227777 127.32260252 -64.9375 76.3125 C-64.59251465 75.66120117 -64.2475293 75.00990234 -63.89208984 74.33886719 C-51.66808913 51.41118044 -35.49914777 29.25817789 -16.7890625 11.1640625 C-14.16132185 8.53632185 -11.77441485 5.72101974 -9.3828125 2.87890625 C-6.58994878 -0.14795416 -3.96469609 0.09130815 0 0 Z " fill="#F7DC08" transform="translate(271.9375,-0.3125)"/>
<path d="M0 0 C1.06089844 -0.03738281 2.12179687 -0.07476563 3.21484375 -0.11328125 C6.0625 0.3125 6.0625 0.3125 7.70141602 1.77905273 C9.72075937 5.53774798 9.59441747 9.06323747 9.6875 13.2734375 C9.71930862 14.16314743 9.75111725 15.05285736 9.78388977 15.9695282 C9.85186177 17.88079152 9.91407085 19.7922668 9.97109985 21.70388794 C10.12498535 26.72723461 10.333751 31.74822927 10.54296875 36.76953125 C10.58407272 37.76752243 10.6251767 38.76551361 10.66752625 39.79374695 C13.53396411 106.70957914 32.84693866 159.04006396 79.13037109 207.26611328 C81.09018958 209.34182703 82.99335085 211.46042458 84.89453125 213.58984375 C92.5513075 222.27426257 92.5513075 222.27426257 103.1875 226.0625 C104.20070313 226.07796875 105.21390625 226.0934375 106.2578125 226.109375 C110.69523242 226.43074803 113.23529543 228.48529543 116.3125 231.5625 C118.47227884 234.95643817 118.9217793 237.30195998 119.0625 241.3125 C118.381875 242.7665625 118.381875 242.7665625 117.6875 244.25 C117.378125 245.7659375 117.378125 245.7659375 117.0625 247.3125 C118.33513382 249.16258913 118.33513382 249.16258913 120.15625 250.9765625 C147.56189352 280.89877209 158.78807994 321.55385988 157.0625 361.3125 C156.59038781 367.10214641 155.47046823 372.68439171 154.0625 378.3125 C153.75650879 379.5492749 153.75650879 379.5492749 153.44433594 380.81103516 C147.70566225 403.44413029 138.30662908 422.7951322 124.0625 441.3125 C123.12664062 442.53839844 123.12664062 442.53839844 122.171875 443.7890625 C111.29071831 457.72225094 98.94849439 470.3809725 85.0625 481.3125 C83.5465625 482.5190625 83.5465625 482.5190625 82 483.75 C45.73981241 512.34192081 45.73981241 512.34192081 33.78486633 512.48658752 C32.88665161 512.49952347 31.98843689 512.51245941 31.06300354 512.52578735 C30.07452927 512.53476044 29.08605499 512.54373352 28.06762695 512.55297852 C27.0282901 512.56597488 25.98895325 512.57897125 24.91812134 512.59236145 C14.00112517 512.719548 3.08334263 512.77592402 -7.83422852 512.82739258 C-13.00524051 512.8540548 -18.17532051 512.9026668 -23.34594727 512.97094727 C-29.59888108 513.05330686 -35.85093284 513.09564284 -42.10437965 513.11045647 C-44.47847388 513.12264102 -46.85254202 513.14852539 -49.22632408 513.18890572 C-63.6762126 513.4222365 -73.88724495 512.73761696 -85.9375 504.3125 C-87.6921787 503.23751727 -89.45039769 502.16824955 -91.21484375 501.109375 C-92.77353432 500.1019108 -94.3269695 499.08626851 -95.875 498.0625 C-96.71490479 497.51094238 -97.55480957 496.95938477 -98.42016602 496.39111328 C-111.27780458 487.8615357 -123.30871651 478.4387758 -134.9375 468.3125 C-136.20400391 467.23162109 -136.20400391 467.23162109 -137.49609375 466.12890625 C-142.44387625 461.84861549 -146.73706921 457.31744879 -150.9375 452.3125 C-152.2059375 450.87583984 -152.2059375 450.87583984 -153.5 449.41015625 C-179.43130835 419.87993808 -190.57897544 384.31274066 -188.9375 345.3125 C-185.54187687 300.37380644 -160.50230687 259.59429326 -134.25 224.4375 C-133.59088623 223.54514648 -132.93177246 222.65279297 -132.25268555 221.73339844 C-131.62918213 220.91645508 -131.00567871 220.09951172 -130.36328125 219.2578125 C-129.54984253 218.18297607 -129.54984253 218.18297607 -128.7199707 217.08642578 C-126.59169951 214.96835723 -124.79761988 214.17783636 -121.9375 213.3125 C-118.16803782 213.3894278 -116.55340831 213.68007307 -113.8984375 216.40625 C-111.66291166 219.71945961 -110.64322761 222.94177349 -109.625 226.75 C-105.81528988 239.72962855 -100.82040377 248.96157071 -90.9375 258.3125 C-91.05343506 257.42691406 -91.16937012 256.54132813 -91.28881836 255.62890625 C-91.72728806 252.25963585 -92.16091454 248.88980827 -92.59155273 245.51953125 C-92.77686942 244.07658311 -92.96396961 242.6338626 -93.15307617 241.19140625 C-100.62088753 184.15724164 -92.22227777 127.32260252 -64.9375 76.3125 C-64.59251465 75.66120117 -64.2475293 75.00990234 -63.89208984 74.33886719 C-51.66808913 51.41118044 -35.49914777 29.25817789 -16.7890625 11.1640625 C-14.16132185 8.53632185 -11.77441485 5.72101974 -9.3828125 2.87890625 C-6.58994878 -0.14795416 -3.96469609 0.09130815 0 0 Z M-23.9375 41.3125 C-27.63568628 45.95490406 -31.30157001 50.62116086 -34.9375 55.3125 C-35.41783691 55.93205566 -35.89817383 56.55161133 -36.39306641 57.18994141 C-43.50970655 66.43935196 -49.57073489 75.95066263 -54.9375 86.3125 C-55.49002441 87.36268311 -55.49002441 87.36268311 -56.05371094 88.43408203 C-66.17745652 107.88695136 -72.70468187 128.84759994 -76.9375 150.3125 C-77.49049287 152.75217444 -78.05219522 155.18990099 -78.625 157.625 C-80.46479344 165.47215804 -80.46479344 165.47215804 -81.09863281 173.48461914 C-81.11280998 175.00174248 -81.11280998 175.00174248 -81.12727356 176.54951477 C-81.13167953 177.63790146 -81.13608551 178.72628815 -81.140625 179.84765625 C-81.14772995 180.98571213 -81.1548349 182.12376801 -81.16215515 183.29631042 C-81.3318284 218.52440044 -81.23077617 255.43267149 -69.9375 289.3125 C-69.84416869 290.90934593 -69.80680413 292.50980531 -69.8046875 294.109375 C-69.80130371 295.53672974 -69.80130371 295.53672974 -69.79785156 296.99291992 C-69.80268555 298.00588135 -69.80751953 299.01884277 -69.8125 300.0625 C-69.81733398 301.09930908 -69.82216797 302.13611816 -69.82714844 303.2043457 C-69.95948463 320.24263019 -71.55923336 333.45229391 -79.75 348.625 C-80.15210693 349.37821533 -80.55421387 350.13143066 -80.96850586 350.9074707 C-85.41037192 358.81842277 -90.64792886 364.63314274 -99.33984375 367.6484375 C-108.50683265 369.99187827 -115.72538793 367.67816474 -123.9375 363.3125 C-131.41530178 358.82776881 -136.95866821 354.12459657 -140.9375 346.3125 C-141.4221875 345.37921875 -141.906875 344.4459375 -142.40625 343.484375 C-148.23251337 330.60185932 -146.93865007 316.93070905 -143.48974609 303.54003906 C-142.81676168 300.82549008 -142.21497042 298.09842198 -141.61328125 295.3671875 C-138.77207347 282.55033161 -135.56353274 269.94998034 -131.60595703 257.43261719 C-130.63004616 254.33736154 -129.69309067 251.23038602 -128.75 248.125 C-127.21750016 243.16200888 -125.60502447 238.23169719 -123.9375 233.3125 C-127.39536476 236.5098407 -129.99164999 240.0841222 -132.5625 244 C-132.9963501 244.65790527 -133.4302002 245.31581055 -133.87719727 245.99365234 C-138.84630184 253.60463878 -143.49063132 261.38619843 -147.9375 269.3125 C-148.38770508 270.11429688 -148.83791016 270.91609375 -149.30175781 271.7421875 C-159.55371262 290.19139559 -168.21040524 309.43516467 -171.9375 330.3125 C-172.08413086 331.09206055 -172.23076172 331.87162109 -172.38183594 332.67480469 C-176.4699188 354.94386681 -176.81284176 375.89464935 -168.9375 397.3125 C-168.50824219 398.48296875 -168.07898438 399.6534375 -167.63671875 400.859375 C-166.4950795 403.73020726 -165.25157067 406.51703911 -163.9375 409.3125 C-163.52242187 410.26769531 -163.10734375 411.22289062 -162.6796875 412.20703125 C-157.11608722 424.33567985 -148.22305691 434.16896954 -139.203125 443.85546875 C-137.20712034 446.02010139 -135.31872623 448.23637498 -133.4375 450.5 C-126.28029177 458.64896919 -117.2298701 464.14408769 -108.0703125 469.7421875 C-104.78844845 471.75838624 -101.60276718 473.88149416 -98.43310547 476.06860352 C-92.19761486 480.35834489 -85.80371925 484.18661694 -79.125 487.75 C-78.36082764 488.16314453 -77.59665527 488.57628906 -76.80932617 489.00195312 C-72.03722817 491.49004472 -67.33710008 493.24964582 -62.14379883 494.6640625 C-59.9375 495.3125 -59.9375 495.3125 -56.4375 496.875 C-52.71151322 498.405316 -49.22662641 499.13083343 -45.26953125 499.78515625 C-42.9375 500.3125 -42.9375 500.3125 -41.046875 501.33203125 C-35.97352118 503.69020127 -29.48538319 503.10504581 -23.9375 503.3125 C-22.80707275 503.36349854 -22.80707275 503.36349854 -21.65380859 503.41552734 C-12.7775818 503.78203681 -4.37133164 503.57746381 4.3125 501.5625 C4.99103027 501.40563721 5.66956055 501.24877441 6.36865234 501.0871582 C11.18049 499.83713559 14.86876839 497.89025354 19.0625 495.3125 C19.98933594 494.77109375 20.91617188 494.2296875 21.87109375 493.671875 C46.50065565 478.59404513 54.14528499 454.98021476 61.23193359 428.41357422 C61.8762216 426.00800507 62.54925752 423.61547089 63.23828125 421.22265625 C65.40683039 412.57929212 65.33773283 403.86080185 65.375 395 C65.38370117 393.06664795 65.38370117 393.06664795 65.39257812 391.09423828 C65.33695829 383.93689238 64.83520805 377.25822788 63.0625 370.3125 C62.4025 370.3125 61.7425 370.3125 61.0625 370.3125 C60.94132813 369.63703125 60.82015625 368.9615625 60.6953125 368.265625 C60.52773438 367.37359375 60.36015625 366.4815625 60.1875 365.5625 C60.02507812 364.68078125 59.86265625 363.7990625 59.6953125 362.890625 C59.09453736 360.44302256 58.28252883 358.50650143 57.0625 356.3125 C56.4025 356.3125 55.7425 356.3125 55.0625 356.3125 C54.81242188 355.42820312 54.56234375 354.54390625 54.3046875 353.6328125 C49.70844797 341.34726659 35.23587367 329.17040244 24.70703125 321.71484375 C23.0625 320.3125 23.0625 320.3125 22.0625 317.3125 C23.0525 316.9825 24.0425 316.6525 25.0625 316.3125 C31.12736971 309.75618597 36.88438948 302.71179208 40.0625 294.3125 C40.7225 293.3225 41.3825 292.3325 42.0625 291.3125 C43.36983224 286.23327794 43.24636387 281.21057177 43.25 276 C43.26224609 275.08798828 43.27449219 274.17597656 43.28710938 273.23632812 C43.30807975 263.48510569 40.49815141 255.36313394 37.0625 246.3125 C36.79953125 245.56742188 36.5365625 244.82234375 36.265625 244.0546875 C32.81743945 234.71856248 27.79231144 226.0432723 23.0625 217.3125 C22.43069824 216.14195068 22.43069824 216.14195068 21.78613281 214.94775391 C4.33386945 181.14339398 4.33386945 181.14339398 -20.6875 153.25 C-27.47759882 147.77906036 -29.82775785 138.63883719 -31.25 130.375 C-31.41314697 129.43390381 -31.57629395 128.49280762 -31.74438477 127.52319336 C-34.47011631 110.04342354 -33.24963097 92.34899435 -31.6875 74.8125 C-31.57849365 73.53125244 -31.4694873 72.25000488 -31.35717773 70.92993164 C-30.43641915 61.76395181 -28.30101428 53.95802806 -24.125 45.75 C-23.733125 44.945625 -23.34125 44.14125 -22.9375 43.3125 C-23.2675 42.6525 -23.5975 41.9925 -23.9375 41.3125 Z " fill="#EA1F2D" transform="translate(271.9375,-0.3125)"/>
<path d="M0 0 C1.06089844 -0.03738281 2.12179687 -0.07476563 3.21484375 -0.11328125 C6.0625 0.3125 6.0625 0.3125 7.70141602 1.77905273 C9.72075937 5.53774798 9.59441747 9.06323747 9.6875 13.2734375 C9.71930862 14.16314743 9.75111725 15.05285736 9.78388977 15.9695282 C9.85186177 17.88079152 9.91407085 19.7922668 9.97109985 21.70388794 C10.12498535 26.72723461 10.333751 31.74822927 10.54296875 36.76953125 C10.58407272 37.76752243 10.6251767 38.76551361 10.66752625 39.79374695 C13.53396411 106.70957914 32.84693866 159.04006396 79.13037109 207.26611328 C81.09018958 209.34182703 82.99335085 211.46042458 84.89453125 213.58984375 C92.5513075 222.27426257 92.5513075 222.27426257 103.1875 226.0625 C104.20070313 226.07796875 105.21390625 226.0934375 106.2578125 226.109375 C110.69523242 226.43074803 113.23529543 228.48529543 116.3125 231.5625 C118.47227884 234.95643817 118.9217793 237.30195998 119.0625 241.3125 C118.381875 242.7665625 118.381875 242.7665625 117.6875 244.25 C117.378125 245.7659375 117.378125 245.7659375 117.0625 247.3125 C118.33513382 249.16258913 118.33513382 249.16258913 120.15625 250.9765625 C147.56189352 280.89877209 158.78807994 321.55385988 157.0625 361.3125 C156.59038781 367.10214641 155.47046823 372.68439171 154.0625 378.3125 C153.75650879 379.5492749 153.75650879 379.5492749 153.44433594 380.81103516 C147.70566225 403.44413029 138.30662908 422.7951322 124.0625 441.3125 C123.12664062 442.53839844 123.12664062 442.53839844 122.171875 443.7890625 C111.29071831 457.72225094 98.94849439 470.3809725 85.0625 481.3125 C83.5465625 482.5190625 83.5465625 482.5190625 82 483.75 C45.59380464 512.45705102 45.59380464 512.45705102 33.24560547 512.42602539 C32.24471893 512.42594986 31.2438324 512.42587433 30.21261597 512.42579651 C29.12924957 512.42063522 28.04588318 512.41547394 26.9296875 512.41015625 C25.82271515 512.4087413 24.7157428 512.40732635 23.57522583 512.40586853 C20.02929007 512.40025772 16.48341677 512.38770337 12.9375 512.375 C10.53776133 512.36998639 8.13802167 512.36542325 5.73828125 512.36132812 C-0.15366725 512.35028478 -6.04557916 512.3335361 -11.9375 512.3125 C-11.9375 511.9825 -11.9375 511.6525 -11.9375 511.3125 C-5.88236741 510.08582819 -0.07853307 509.16459403 6.11328125 509.35546875 C23.75478487 509.8601508 34.63375635 505.09652987 49.0625 495.3125 C50.46016154 494.41916861 51.86091267 493.53064044 53.265625 492.6484375 C66.35175628 484.32454771 78.7196477 474.87872457 90.0625 464.3125 C91.45394666 463.09911781 92.84958639 461.89052197 94.25 460.6875 C116.88026134 440.86339107 134.18889993 413.40995191 142.875 384.625 C143.0699707 383.98506104 143.26494141 383.34512207 143.46582031 382.68579102 C146.73844974 371.17531264 147.47088237 359.53932583 147.4375 347.625 C147.43718277 346.57326096 147.43718277 346.57326096 147.43685913 345.50027466 C147.40325851 334.30967492 146.41079074 324.02703038 143.0625 313.3125 C142.70027344 312.054375 142.33804687 310.79625 141.96484375 309.5 C134.8732533 286.42228192 121.99205185 265.6117891 105.49609375 248.0546875 C104.0625 246.3125 104.0625 246.3125 104.0625 244.3125 C106.5625 242.6875 106.5625 242.6875 109.0625 241.3125 C108.70550692 238.72430019 108.28793177 237.53421878 106.40234375 235.6796875 C103.37373612 233.91005032 101.357997 234.14596783 97.875 234.25 C91.79490968 233.85361842 91.79490968 233.85361842 88.87890625 231.69921875 C87.48987277 230.08100872 86.14966866 228.42037446 84.84375 226.734375 C81.1467493 221.98192142 76.7267981 217.89683781 72.4375 213.6875 C66.73535779 208.07811233 61.26023524 202.3923446 56.0625 196.3125 C55.17502373 195.31346067 54.28583465 194.31593891 53.39453125 193.3203125 C45.72319697 184.54287886 39.29076586 175.15475413 33.0625 165.3125 C32.68496582 164.72952148 32.30743164 164.14654297 31.91845703 163.54589844 C11.76711414 132.21619201 4.75789808 91.86557592 2.0625 55.3125 C1.97492432 54.16281738 1.88734863 53.01313477 1.79711914 51.82861328 C1.09573313 41.80934185 0.94077904 31.85324649 1 21.8125 C1.00503584 20.29557443 1.00959499 18.7786472 1.01367188 17.26171875 C1.02448764 13.6119436 1.04163154 9.96223321 1.0625 6.3125 C0.4025 6.3125 -0.2575 6.3125 -0.9375 6.3125 C-1.2778125 7.1478125 -1.2778125 7.1478125 -1.625 8 C-3.83700429 11.89734089 -7.32089662 14.71271307 -10.515625 17.8203125 C-16.80501735 23.98097459 -22.53492882 30.34345019 -27.9375 37.3125 C-28.39237793 37.89628418 -28.84725586 38.48006836 -29.31591797 39.08154297 C-37.10824925 49.12331435 -44.31528458 59.46202715 -50.9375 70.3125 C-51.35741211 70.99973145 -51.77732422 71.68696289 -52.20996094 72.39501953 C-75.3716868 110.86228867 -86.4077205 155.32148171 -86.3125 200 C-86.31262085 200.88214172 -86.3127417 201.76428345 -86.31286621 202.67315674 C-86.27008683 224.80850312 -83.71130812 246.37076406 -78.671875 267.953125 C-77.9375 271.3125 -77.9375 271.3125 -77.9375 274.3125 C-93.31396114 270.07840201 -104.02309654 260.96530081 -111.9375 247.3125 C-120.4308082 230.6987394 -120.4308082 230.6987394 -119.9375 222.3125 C-120.5975 222.3125 -121.2575 222.3125 -121.9375 222.3125 C-122.21045898 222.89467285 -122.48341797 223.4768457 -122.76464844 224.07666016 C-123.91870446 226.27666954 -125.19315851 228.1167853 -126.703125 230.0859375 C-127.25629395 230.81651367 -127.80946289 231.54708984 -128.37939453 232.29980469 C-129.27440674 233.48171387 -129.27440674 233.48171387 -130.1875 234.6875 C-147.77170629 258.30644168 -162.35176225 283.40843568 -171.9375 311.3125 C-172.35644531 312.51261719 -172.77539062 313.71273438 -173.20703125 314.94921875 C-177.78817943 328.89855759 -179.50289615 342.60034765 -179.375 357.1875 C-179.37195862 357.92885193 -179.36891724 358.67020386 -179.36578369 359.434021 C-179.29703347 370.79125258 -178.58853508 381.48909894 -174.9375 392.3125 C-174.60806396 393.32618652 -174.60806396 393.32618652 -174.27197266 394.36035156 C-167.28031998 415.4887004 -155.95450964 433.95406907 -140.37792969 449.84130859 C-138.85435047 451.39742526 -137.35336383 452.97365593 -135.8515625 454.55078125 C-128.43118144 462.2508989 -120.5285297 468.95814571 -111.9375 475.3125 C-111.08502686 475.94816895 -111.08502686 475.94816895 -110.21533203 476.59667969 C-96.43059746 486.83002615 -81.67769419 495.54462587 -66.9375 504.3125 C-67.2675 502.9925 -67.5975 501.6725 -67.9375 500.3125 C-66.968125 500.77140625 -65.99875 501.2303125 -65 501.703125 C-55.48570719 506.09534946 -46.17762509 509.12013279 -35.9375 511.3125 C-35.9375 511.6425 -35.9375 511.9725 -35.9375 512.3125 C-40.64713773 512.51348577 -45.35417084 512.6568857 -50.06713867 512.75195312 C-51.66263396 512.79166038 -53.25784873 512.84585006 -54.85229492 512.91601562 C-67.42583915 513.45459894 -75.41407029 511.15075137 -85.9375 504.3125 C-86.85587646 503.75691406 -87.77425293 503.20132812 -88.72045898 502.62890625 C-91.14058642 501.15461114 -93.51144403 499.62560498 -95.875 498.0625 C-96.71490479 497.51094238 -97.55480957 496.95938477 -98.42016602 496.39111328 C-111.27780458 487.8615357 -123.30871651 478.4387758 -134.9375 468.3125 C-136.20400391 467.23162109 -136.20400391 467.23162109 -137.49609375 466.12890625 C-142.44387625 461.84861549 -146.73706921 457.31744879 -150.9375 452.3125 C-152.2059375 450.87583984 -152.2059375 450.87583984 -153.5 449.41015625 C-179.43130835 419.87993808 -190.57897544 384.31274066 -188.9375 345.3125 C-185.54187687 300.37380644 -160.50230687 259.59429326 -134.25 224.4375 C-133.59088623 223.54514648 -132.93177246 222.65279297 -132.25268555 221.73339844 C-131.62918213 220.91645508 -131.00567871 220.09951172 -130.36328125 219.2578125 C-129.54984253 218.18297607 -129.54984253 218.18297607 -128.7199707 217.08642578 C-126.59169951 214.96835723 -124.79761988 214.17783636 -121.9375 213.3125 C-118.16803782 213.3894278 -116.55340831 213.68007307 -113.8984375 216.40625 C-111.66291166 219.71945961 -110.64322761 222.94177349 -109.625 226.75 C-105.81528988 239.72962855 -100.82040377 248.96157071 -90.9375 258.3125 C-91.05343506 257.42691406 -91.16937012 256.54132813 -91.28881836 255.62890625 C-91.72728806 252.25963585 -92.16091454 248.88980827 -92.59155273 245.51953125 C-92.77686942 244.07658311 -92.96396961 242.6338626 -93.15307617 241.19140625 C-100.62088753 184.15724164 -92.22227777 127.32260252 -64.9375 76.3125 C-64.59251465 75.66120117 -64.2475293 75.00990234 -63.89208984 74.33886719 C-51.66808913 51.41118044 -35.49914777 29.25817789 -16.7890625 11.1640625 C-14.16132185 8.53632185 -11.77441485 5.72101974 -9.3828125 2.87890625 C-6.58994878 -0.14795416 -3.96469609 0.09130815 0 0 Z " fill="#FEFCFC" transform="translate(271.9375,-0.3125)"/>
<path d="M0 0 C0.495 1.485 0.495 1.485 1 3 C-0.14829776 5.22241608 -1.32352049 7.22989004 -2.6875 9.3125 C-3.74517578 10.97732422 -3.74517578 10.97732422 -4.82421875 12.67578125 C-7 16 -7 16 -9.234375 18.81640625 C-11.64292007 23.15924747 -11.6449049 26.73456852 -11.5625 31.625 C-11.55150269 32.95035767 -11.55150269 32.95035767 -11.5402832 34.30249023 C-11.3175064 41.79944374 -10.14680412 50.01106913 -4.4609375 55.48046875 C-2.49076124 57.52966278 -1.86101349 59.57293256 -0.9375 62.25 C-0.61652344 63.16265625 -0.29554688 64.0753125 0.03515625 65.015625 C0.35355469 66.00046875 0.67195313 66.9853125 1 68 C1.36480469 69.09570312 1.72960937 70.19140625 2.10546875 71.3203125 C3.1296411 75.53328348 3.30201997 79.3119874 3.25 83.625 C3.24613281 84.40536621 3.24226563 85.18573242 3.23828125 85.98974609 C3.1380173 92.79237691 2.32177117 99.32033496 1 106 C1.66 106 2.32 106 3 106 C3.103125 105.360625 3.20625 104.72125 3.3125 104.0625 C3.88985048 101.49066602 4.59445696 99.11580897 5.4375 96.625 C5.70046875 95.83996094 5.9634375 95.05492187 6.234375 94.24609375 C6.86801337 92.38720569 7.52475467 90.53621065 8.1875 88.6875 C10.05822478 80.19728755 9.51197605 72.90194611 6 65 C6 64.34 6 63.68 6 63 C5.34 63 4.68 63 4 63 C4 62.34 4 61.68 4 61 C7.3 61 10.6 61 14 61 C14 61.66 14 62.32 14 63 C14.66 63 15.32 63 16 63 C20.84774765 67.08231381 24.29711203 72.02996925 25.41357422 78.3359375 C25.61023099 80.72916703 25.70699002 83.09926126 25.75 85.5 C25.77964844 86.32242188 25.80929687 87.14484375 25.83984375 87.9921875 C25.90968437 89.99428533 25.95720388 91.99714156 26 94 C29.66183742 88.29884662 29.23230772 79.4987222 28 73 C26.32634462 69.668222 24.50943639 67.17548475 22.04296875 64.39453125 C17.08957527 58.58873736 16.41773709 53.49889128 16.5703125 46.08203125 C17.19887969 41.57349023 18.54212609 39.88156159 22 37 C22.66 37 23.32 37 24 37 C24 38.65 24 40.3 24 42 C24.66 42 25.32 42 26 42 C26.45375 43.0725 26.9075 44.145 27.375 45.25 C27.6534375 45.88679688 27.931875 46.52359375 28.21875 47.1796875 C28.8117116 48.56128802 29.3552422 49.96422883 29.875 51.375 C30.89961214 53.26127436 30.89961214 53.26127436 33.3125 53.4375 C37.08611892 54.22732721 38.37753486 56.19457217 41 59 C42.36858726 60.15348513 43.74401765 61.29888384 45.125 62.4375 C49.93777018 66.61581837 51.98435618 70.7485372 53 77 C53.71623901 87.61442736 52.82599286 96.02509004 49 106 C48.34 106 47.68 106 47 106 C46.62875 107.175625 46.62875 107.175625 46.25 108.375 C45 112 45 112 43.9765625 114.203125 C41.24191508 120.21547038 40.64619616 125.03416181 40.95703125 131.62890625 C40.97121094 132.41136719 40.98539062 133.19382812 41 134 C38.44936959 136.55063041 32.43029271 135.93329986 29 136 C25.3125 135.0625 25.3125 135.0625 23 134 C23 133.34 23 132.68 23 132 C22.401875 131.79375 21.80375 131.5875 21.1875 131.375 C16.78765066 128.60938042 15.26061226 122.8485087 14 118 C13.84878735 115.30743918 13.90686885 112.7008033 14 110 C13.34 110 12.68 110 12 110 C11.18325982 114.33738537 10.96139666 118.37650937 11.078125 122.79296875 C11.10390625 123.83517578 11.1296875 124.87738281 11.15625 125.95117188 C11.21910384 128.12093888 11.29740436 130.29030981 11.390625 132.45898438 C11.54804122 140.3839073 11.54804122 140.3839073 8.640625 143.65234375 C7.33351563 144.31943359 7.33351563 144.31943359 6 145 C0.76855709 147.8772936 -3.05583515 151.16750545 -5 157 C-5.66 157 -6.32 157 -7 157 C-7.27585937 157.55171875 -7.55171875 158.1034375 -7.8359375 158.671875 C-9.890625 162.78125 -11.9453125 166.890625 -14 171 C-14.33 171 -14.66 171 -15 171 C-15.01981934 170.00371582 -15.03963867 169.00743164 -15.06005859 167.98095703 C-13.9460187 137.00878065 -13.9460187 137.00878065 -22 108 C-23.0715692 105.92131689 -24.13355345 103.83767351 -25.1875 101.75 C-25.69667969 100.77546875 -26.20585937 99.8009375 -26.73046875 98.796875 C-27.92883749 96.15677649 -28.56759937 93.85488611 -29 91 C-29.66 91 -30.32 91 -31 91 C-32.44681324 88.10637351 -32.43242376 85.1916991 -32.71875 81.99609375 C-32.79532012 80.00416869 -32.79532012 80.00416869 -34 79 C-34.04063832 77.33382885 -34.042721 75.66611905 -34 74 C-34.99 74 -35.98 74 -37 74 C-41.01274142 53.72132459 -39.56498505 36.10251609 -29 18 C-27.21875 16.08203125 -27.21875 16.08203125 -25.5 14.8125 C-23.17218803 12.99203166 -21.63377072 11.5422134 -19.75 9.1875 C-18 7 -18 7 -15 6 C-14.67 5.34 -14.34 4.68 -14 4 C-13.01 3.67 -12.02 3.34 -11 3 C-10.67 2.34 -10.34 1.68 -10 1 C-6.52674819 -0.1577506 -3.63932552 -0.06866652 0 0 Z " fill="#F7D808" transform="translate(361,243)"/>
<path d="M0 0 C19.19813881 23.62489412 33.91714143 49.36451531 31 81 C29.13072775 89.75887566 24.85766164 96.85088846 17.9375 102.5 C14.82477018 104.08947906 13.41043501 104.69957641 10 104 C5.09030275 100.64703602 -0.22266452 96.31147944 -1.6262207 90.33227539 C-3.15281047 79.99814266 -3.26973419 69.86397459 -3.1875 59.4375 C-3.1799512 57.63086063 -3.1727117 55.82421994 -3.16577148 54.01757812 C-3.10838548 43.00795387 -2.92004906 32.00394096 -2.5625 21 C-2.52342529 19.78497803 -2.48435059 18.56995605 -2.4440918 17.31811523 C-2.12896215 9.12896215 -2.12896215 9.12896215 -1 8 C-0.76924918 6.65252916 -0.58846937 5.29622435 -0.4375 3.9375 C-0.2209375 1.9884375 -0.2209375 1.9884375 0 0 Z " fill="#EA1F2C" transform="translate(262,340)"/>
<path d="M0 0 C3 1 3 1 4.359375 3.67578125 C4.81828125 4.87589844 5.2771875 6.07601562 5.75 7.3125 C6.00531494 7.97983154 6.26062988 8.64716309 6.52368164 9.3347168 C7.36334434 11.55141618 8.18228108 13.77512114 9 16 C9.2789209 16.7425 9.5578418 17.485 9.84521484 18.25 C13.68424835 28.50498259 16.93047247 38.87360599 19.8125 49.4375 C20.1024585 50.49042236 20.39241699 51.54334473 20.69116211 52.62817383 C23.9962077 65.06811996 25.34586409 77.0098071 25.3125 89.875 C25.32861328 91.14085937 25.34472656 92.40671875 25.36132812 93.7109375 C25.36472114 100.17123032 25.36716589 105.37986423 22 111 C19.41991408 112.29004296 17.44258426 112.20410224 14.5625 112.25 C13.59441406 112.27578125 12.62632812 112.3015625 11.62890625 112.328125 C8.51794181 111.93983226 7.93062022 111.38444876 6 109 C5.33984375 107.10913086 5.33984375 107.10913086 4.9375 104.96484375 C4.78192627 104.1641748 4.62635254 103.36350586 4.46606445 102.53857422 C4.31226318 101.68021973 4.15846191 100.82186523 4 99.9375 C3.83266357 99.05078613 3.66532715 98.16407227 3.49291992 97.25048828 C2.98026508 94.50281465 2.48709534 91.75231078 2 89 C1.84998535 88.16194824 1.6999707 87.32389648 1.54541016 86.46044922 C1.12617994 84.09996991 0.71612682 81.73819448 0.3125 79.375 C0.19326172 78.67882568 0.07402344 77.98265137 -0.04882812 77.26538086 C-1.62882753 67.65866485 -2.15819165 58.18833944 -2.16796875 48.45703125 C-2.17129715 47.28919601 -2.17462555 46.12136078 -2.17805481 44.9181366 C-2.18308931 42.465041 -2.18546422 40.01193864 -2.18530273 37.55883789 C-2.18749959 33.81319995 -2.20572077 30.06785201 -2.22460938 26.32226562 C-2.22754198 23.9296885 -2.22952767 21.53710999 -2.23046875 19.14453125 C-2.23765427 18.03084671 -2.24483978 16.91716217 -2.25224304 15.76972961 C-2.2356478 10.11515198 -1.91861965 5.33573019 0 0 Z " fill="#EA1F2C" transform="translate(247,193)"/>
<path d="M0 0 C2.29633824 3.44450737 2.54016485 5.93812283 3 10 C3.66 10 4.32 10 5 10 C6.32594359 15.96674616 6.0884587 21.92583615 6 28 C6.66 28 7.32 28 8 28 C8.33 22.39 8.66 16.78 9 11 C9.66 11.33 10.32 11.66 11 12 C11.75474188 23.44691858 9.44181287 34.82617594 4 45 C2.515 45.495 2.515 45.495 1 46 C1.90594059 38.49363508 1.90594059 38.49363508 2.51953125 35.2734375 C3.9269088 25.68496282 4.18491753 15.06103695 0.65625 5.9453125 C0 4 0 4 0 0 Z " fill="#EE5621" transform="translate(360,304)"/>
<path d="M0 0 C2.29633824 3.44450737 2.54016485 5.93812283 3 10 C3.66 10 4.32 10 5 10 C4.99476318 10.83772949 4.98952637 11.67545898 4.98413086 12.53857422 C4.96709986 15.64338936 4.95455518 18.74818071 4.94506836 21.85302734 C4.93755964 23.85906551 4.9248553 25.86508202 4.91210938 27.87109375 C4.90888672 29.12792969 4.90566406 30.38476562 4.90234375 31.6796875 C4.89710693 32.84226074 4.89187012 34.00483398 4.88647461 35.20263672 C4.80643717 37.95502192 4.80643717 37.95502192 6 40 C5.25 42.5625 5.25 42.5625 4 45 C2.515 45.495 2.515 45.495 1 46 C1.90594059 38.49363508 1.90594059 38.49363508 2.51953125 35.2734375 C3.9269088 25.68496282 4.18491753 15.06103695 0.65625 5.9453125 C0 4 0 4 0 0 Z " fill="#F18319" transform="translate(360,304)"/>
<path d="M0 0 C0.66 0.33 1.32 0.66 2 1 C2.08164159 3.6881249 2.14079668 6.373723 2.1875 9.0625 C2.22520508 10.19075195 2.22520508 10.19075195 2.26367188 11.34179688 C2.33282151 16.66631856 1.40669334 20.24346434 -1 25 C-1.33 25 -1.66 25 -2 25 C-2 18.73 -2 12.46 -2 6 C-1.01 6.495 -1.01 6.495 0 7 C0 4.69 0 2.38 0 0 Z " fill="#EC4026" transform="translate(388,315)"/>
<path d="M0 0 C0.33 0 0.66 0 1 0 C1.31310565 3.91449057 1.56810225 7.83066729 1.8125 11.75 C1.94688477 13.41675781 1.94688477 13.41675781 2.08398438 15.1171875 C2.55588182 23.36297436 2.55588182 23.36297436 -0.328125 26.66796875 C-1.20984375 27.10753906 -2.0915625 27.54710937 -3 28 C-3.845625 28.515625 -4.69125 29.03125 -5.5625 29.5625 C-6.366875 30.036875 -7.17125 30.51125 -8 31 C-9.34631825 31.98244845 -10.68441297 32.97676564 -12 34 C-10.56590028 30.64138305 -8.80630679 28.64125061 -6.0625 26.25 C-5.37285156 25.63640625 -4.68320312 25.0228125 -3.97265625 24.390625 C-2 23 -2 23 1 23 C0.83628906 22.19304687 0.67257812 21.38609375 0.50390625 20.5546875 C-0.08897993 16.37231212 -0.10894252 12.34055182 -0.0625 8.125 C-0.05798828 7.34125 -0.05347656 6.5575 -0.04882812 5.75 C-0.03714093 3.83329986 -0.01920908 1.91663952 0 0 Z " fill="#F4A712" transform="translate(370,360)"/>
<path d="M0 0 C0.33 2.31 0.66 4.62 1 7 C0.01 7 -0.98 7 -2 7 C-1.67 5.68 -1.34 4.36 -1 3 C-4.3 3 -7.6 3 -11 3 C-11.33 3.99 -11.66 4.98 -12 6 C-12.99 6 -13.98 6 -15 6 C-15.33 6.99 -15.66 7.98 -16 9 C-16.99 8.67 -17.98 8.34 -19 8 C-17 5 -17 5 -14 4 C-13.67 3.34 -13.34 2.68 -13 2 C-11.07421875 1.11328125 -11.07421875 1.11328125 -8.6875 0.3125 C-7.51767578 -0.09548828 -7.51767578 -0.09548828 -6.32421875 -0.51171875 C-3.81725489 -1.03839183 -2.39867657 -0.8178554 0 0 Z " fill="#ED4C23" transform="translate(362,241)"/>
<path d="M0 0 C0.66 0 1.32 0 2 0 C2.144375 1.216875 2.28875 2.43375 2.4375 3.6875 C2.82780953 6.82670377 3.32351856 9.9075134 4 13 C3.01 12.01 2.02 11.02 1 10 C-0.28446919 12.56893838 -0.32977144 14.76576337 -0.5625 17.625 C-0.64628906 18.62789063 -0.73007812 19.63078125 -0.81640625 20.6640625 C-0.87699219 21.43492187 -0.93757813 22.20578125 -1 23 C-1.33 23 -1.66 23 -2 23 C-2.05447822 20.47886908 -2.09389852 17.9589415 -2.125 15.4375 C-2.14175781 14.73302734 -2.15851563 14.02855469 -2.17578125 13.30273438 C-2.22022044 8.48108178 -1.52768004 4.57702562 0 0 Z " fill="#EE5E20" transform="translate(373,353)"/>
<path d="M0 0 C0.33 0 0.66 0 1 0 C1.042721 1.66611905 1.04063832 3.33382885 1 5 C0.67 5.33 0.34 5.66 0 6 C-0.12713954 8.61670921 -0.18521024 11.19530713 -0.1875 13.8125 C-0.19974609 14.53759766 -0.21199219 15.26269531 -0.22460938 16.00976562 C-0.23540073 19.94141503 0.10939362 22.57776313 2 26 C1.67 26.99 1.34 27.98 1 29 C-2.40264306 23.56834024 -2.42466443 19.00846287 -2.3125 12.8125 C-2.31572266 11.91080078 -2.31894531 11.00910156 -2.32226562 10.08007812 C-2.26756266 3.401344 -2.26756266 3.401344 0 0 Z " fill="#EE5721" transform="translate(351,262)"/>
<path d="M0 0 C0.33 0.99 0.66 1.98 1 3 C0.34 3.66 -0.32 4.32 -1 5 C-1.33 4.34 -1.66 3.68 -2 3 C-6.455 3.495 -6.455 3.495 -11 4 C-10.67 3.01 -10.34 2.02 -10 1 C-6.52674819 -0.1577506 -3.63932552 -0.06866652 0 0 Z " fill="#F3A412" transform="translate(361,243)"/>
<path d="M0 0 C0 3.41991098 -0.80837491 5.08125425 -2.3125 8.125 C-2.74175781 9.01445312 -3.17101562 9.90390625 -3.61328125 10.8203125 C-5 13 -5 13 -8 14 C-4.62 3.08 -4.62 3.08 0 0 Z " fill="#F39915" transform="translate(335,259)"/>
<path d="M0 0 C0.99 0.33 1.98 0.66 3 1 C-1.625 5.875 -1.625 5.875 -5 7 C-6.70586575 8.62652316 -8.3777546 10.29006566 -10 12 C-10.33 11.34 -10.66 10.68 -11 10 C-7.87058657 6.69176295 -4.92023166 4.2868018 -1 2 C-0.67 1.34 -0.34 0.68 0 0 Z " fill="#F4AC11" transform="translate(347,247)"/>
<path d="M0 0 C0.99 1.485 0.99 1.485 2 3 C2.66 2.34 3.32 1.68 4 1 C3.51171875 7.0546875 3.51171875 7.0546875 3 9 C2.01 9.66 1.02 10.32 0 11 C0 7.37 0 3.74 0 0 Z " fill="#EF621F" transform="translate(345,409)"/>
<path d="M0 0 C2 1.1875 2 1.1875 4 3 C4.25 5.6875 4.25 5.6875 4 8 C4.66 8 5.32 8 6 8 C6 9.65 6 11.3 6 13 C4.5 11.75 4.5 11.75 3 10 C3 8.68 3 7.36 3 6 C2.34 6 1.68 6 1 6 C0.67 4.02 0.34 2.04 0 0 Z " fill="#F18219" transform="translate(329,328)"/>
<path d="M0 0 C3.3 0 6.6 0 10 0 C10 0.66 10 1.32 10 2 C10.66 2 11.32 2 12 2 C12.33 2.99 12.66 3.98 13 5 C12.34 5 11.68 5 11 5 C11 4.34 11 3.68 11 3 C9.02 3 7.04 3 5 3 C5 2.34 5 1.68 5 1 C3.35 1.33 1.7 1.66 0 2 C0 1.34 0 0.68 0 0 Z " fill="#F29016" transform="translate(365,304)"/>
<path d="M0 0 C0.66 0.33 1.32 0.66 2 1 C1.04882866 2.1725131 0.08882991 3.33787015 -0.875 4.5 C-1.40867187 5.1496875 -1.94234375 5.799375 -2.4921875 6.46875 C-2.98976563 6.9740625 -3.48734375 7.479375 -4 8 C-4.66 8 -5.32 8 -6 8 C-4.55746343 4.63408134 -2.66735273 2.48952921 0 0 Z " fill="#EC4425" transform="translate(364,388)"/>
<path d="M0 0 C0.66 0 1.32 0 2 0 C3.42258812 3.82320557 4.24042276 6.91281305 4 11 C1.9656541 9.58480285 1.09589607 8.45017877 0.578125 6.01953125 C0.33726048 4.01823046 0.16467259 2.0090056 0 0 Z " fill="#F07A1B" transform="translate(325,317)"/>
<path d="M0 0 C0.33 0 0.66 0 1 0 C1.042721 1.66611905 1.04063832 3.33382885 1 5 C0.67 5.33 0.34 5.66 0 6 C-0.36760731 8.32817964 -0.70241581 10.6618385 -1 13 C-1.33 13 -1.66 13 -2 13 C-2.05416188 11.39620659 -2.09286638 9.79188594 -2.125 8.1875 C-2.14820313 7.29417969 -2.17140625 6.40085937 -2.1953125 5.48046875 C-2 3 -2 3 0 0 Z " fill="#F07B1A" transform="translate(351,262)"/>
</svg>
